<?xml version="1.0" encoding="utf-8"?>
<!-- Generator: Adobe Illustrator 16.0.0, SVG Export Plug-In . SVG Version: 6.00 Build 0)  -->
<!DOCTYPE svg PUBLIC "-//W3C//DTD SVG 1.1//EN" "http://www.w3.org/Graphics/SVG/1.1/DTD/svg11.dtd">
<svg version="1.1" xmlns="http://www.w3.org/2000/svg" xmlns:xlink="http://www.w3.org/1999/xlink" x="0px" y="0px" width="22px"
	 height="88px" viewBox="0 0 22 88" enable-background="new 0 0 22 88" xml:space="preserve">
<g id="Rectangle_1_copy_3_1_" enable-background="new    ">
	<g id="Rectangle_1_copy_3">
		<g>
			<path fill-rule="evenodd" clip-rule="evenodd" fill="#322D2B" d="M19.996,6.695l1.668-1.221l-1.88-2.511
				c1.179-1.148,1.765-2.127,1.765-2.127s-1.004-0.736-1.871-0.779c-0.664-0.033-1.248,0.624-1.248,0.624s-2.427,3.432-7.488,3.432
				c-4.937,0-7.332-3.432-7.332-3.432S3.041,0.018,2.206,0.058C1.403,0.096,0.333,0.837,0.333,0.837S0.949,1.864,2.19,3.051
				L0.375,5.475l1.668,1.221l1.749-2.334c0.589,0.411,1.26,0.799,2.004,1.138L4.817,8.275l1.913,0.674l0.977-2.769
				C8.418,6.371,9.182,6.503,10,6.563v3h2.063V6.554c0.807-0.07,1.558-0.213,2.258-0.408l0.989,2.804l1.913-0.674l-1-2.836
				c0.732-0.344,1.396-0.734,1.974-1.146L19.996,6.695z"/>
		</g>
	</g>
</g>
<g id="Rectangle_1_copy_4_1_" enable-background="new    ">
	<g id="Rectangle_1_copy_4">
		<g>
			<path fill-rule="evenodd" clip-rule="evenodd" fill="#FFFFFF" d="M19.996,56.695l1.668-1.221l-1.88-2.511
				c1.179-1.148,1.765-2.127,1.765-2.127s-1.004-0.736-1.871-0.779c-0.664-0.033-1.248,0.624-1.248,0.624s-2.427,3.432-7.488,3.432
				c-4.937,0-7.332-3.432-7.332-3.432s-0.569-0.664-1.404-0.624c-0.802,0.038-1.872,0.779-1.872,0.779s0.616,1.027,1.857,2.214
				l-1.815,2.424l1.668,1.221l1.749-2.334c0.589,0.411,1.26,0.799,2.004,1.138l-0.979,2.776l1.913,0.674l0.977-2.769
				C8.418,56.37,9.182,56.503,10,56.563v3h2.063v-3.009c0.807-0.069,1.558-0.213,2.258-0.408l0.989,2.804l1.913-0.674l-1-2.837
				c0.732-0.344,1.396-0.733,1.974-1.146L19.996,56.695z"/>
		</g>
	</g>
</g>
</svg>
