<?xml version="1.0" encoding="utf-8"?>
<!-- Generator: Adobe Illustrator 16.0.0, SVG Export Plug-In . SVG Version: 6.00 Build 0)  -->
<!DOCTYPE svg PUBLIC "-//W3C//DTD SVG 1.1//EN" "http://www.w3.org/Graphics/SVG/1.1/DTD/svg11.dtd">
<svg version="1.1" id="Layer_1" xmlns="http://www.w3.org/2000/svg" xmlns:xlink="http://www.w3.org/1999/xlink" x="0px" y="0px"
	 width="283.625px" height="66.375px" viewBox="0 0 283.625 66.375" enable-background="new 0 0 283.625 66.375"
	 xml:space="preserve">
<image display="none" overflow="visible" width="282" height="64" xlink:href="logo.png"  transform="matrix(1 0 0 1 0.875 1.125)">
</image>
<g>
	<path fill="#322D2B" d="M96.758,37.692c-0.144,0.473-0.336,1.131-0.58,1.974c-0.243,0.844-0.53,1.754-0.858,2.732
		c-0.329,0.979-0.672,1.981-1.03,3.011c-0.358,1.029-0.702,1.965-1.03,2.808c-0.329,0.844-0.637,1.527-0.923,2.05
		c-0.286,0.523-0.515,0.784-0.687,0.784c-0.172,0-0.308-0.144-0.408-0.431c-0.101-0.286-0.172-0.648-0.215-1.088
		c-0.043-0.438-0.064-0.918-0.064-1.441c0-0.522,0-1.021,0-1.493c0-0.943,0.028-1.847,0.086-2.707
		c0.057-0.86,0.15-1.736,0.279-2.631c0.129-0.894,0.293-1.847,0.494-2.858c0.2-1.013,0.429-2.159,0.687-3.441
		c0.257-1.247,0.622-2.631,1.094-4.149c0.472-1.518,0.994-3.086,1.567-4.706c0.572-1.619,1.159-3.195,1.76-4.731
		c0.601-1.535,1.166-2.942,1.695-4.225c0.529-1.281,0.979-2.344,1.352-3.188c0.372-0.843,0.629-1.383,0.772-1.619
		c0.772-0.202,1.545-0.134,2.318,0.203c0.772,0.337,1.358,1.164,1.76,2.479c-0.458,1.147-1.023,2.463-1.696,3.947
		c-0.672,1.485-1.338,2.994-1.996,4.528c-0.659,1.536-1.259,3.028-1.803,4.478c-0.544,1.451-0.93,2.732-1.159,3.846
		c0.658,0,1.423,0,2.296,0c0.872,0,1.773,0.009,2.704,0.025c0.93,0.017,1.86,0.05,2.79,0.101c0.93,0.051,1.795,0.11,2.597,0.177
		c0.229-1.316,0.515-2.8,0.858-4.453c0.343-1.652,0.744-3.356,1.202-5.111c0.458-1.753,0.951-3.508,1.481-5.262
		c0.529-1.753,1.094-3.407,1.695-4.958c0.801-0.27,1.595-0.27,2.382,0c0.787,0.271,1.452,0.945,1.996,2.024
		c-0.315,1.046-0.715,2.345-1.202,3.896c-0.487,1.552-0.973,3.188-1.459,4.908c-0.487,1.72-0.93,3.424-1.331,5.11
		c-0.401,1.687-0.687,3.171-0.858,4.453c0.028,0,0.215,0.051,0.558,0.152s0.765,0.253,1.266,0.456c0.5,0.201,1.044,0.43,1.631,0.683
		s1.123,0.523,1.61,0.81c0.486,0.287,0.894,0.574,1.223,0.86c0.329,0.287,0.494,0.564,0.494,0.835c0,0.101-0.036,0.22-0.107,0.354
		c-0.072,0.136-0.257,0.262-0.558,0.38c-0.3,0.118-0.744,0.211-1.331,0.278c-0.587,0.067-1.41,0.101-2.468,0.101h-1.932
		c-0.315,0-0.644-0.017-0.987-0.05c-0.086,0.54-0.215,1.273-0.387,2.2c-0.171,0.929-0.372,1.923-0.601,2.985
		c-0.229,1.063-0.479,2.134-0.751,3.214c-0.272,1.079-0.544,2.058-0.816,2.935s-0.536,1.594-0.794,2.15
		c-0.257,0.557-0.501,0.835-0.729,0.835c-0.315,0-0.565-0.338-0.751-1.013c-0.187-0.674-0.308-1.585-0.365-2.732
		c0-1.585,0.014-3.068,0.043-4.452c0.028-1.181,0.071-2.369,0.129-3.567c0.057-1.197,0.129-2.1,0.215-2.707
		c-0.773-0.033-1.674-0.059-2.704-0.076c-1.03-0.017-2.075-0.017-3.133,0c-1.059,0.018-2.068,0.051-3.026,0.102
		C98.095,37.516,97.33,37.592,96.758,37.692z"/>
	<path fill="#322D2B" d="M144.185,45.859c0.43,0.835,0.822,1.494,1.181,1.978c0.357,0.483,0.665,0.856,0.923,1.12
		s0.465,0.473,0.622,0.626c0.157,0.154,0.236,0.319,0.236,0.494c0,0.221-0.086,0.407-0.258,0.561
		c-0.171,0.154-0.386,0.23-0.644,0.23c-0.315,0-0.766-0.109-1.352-0.329c-0.587-0.22-1.23-0.637-1.932-1.253
		c-0.702-0.614-1.41-1.493-2.125-2.636c-0.716-1.143-1.374-2.637-1.975-4.481c-0.772,0.967-1.832,2-3.176,3.098
		c-1.345,1.099-2.783,2.108-4.313,3.031c-1.531,0.923-3.055,1.692-4.571,2.307c-1.517,0.615-2.819,0.923-3.906,0.923
		c-0.601,0-1.209-0.089-1.824-0.264c-0.616-0.176-1.181-0.494-1.695-0.956c-0.515-0.461-0.938-1.108-1.266-1.943
		c-0.33-0.835-0.494-1.912-0.494-3.229c0-1.538,0.486-3.196,1.459-4.977c0.973-1.779,2.203-3.427,3.691-4.942
		c1.487-1.517,3.104-2.768,4.85-3.757c1.745-0.989,3.391-1.483,4.936-1.483c0.486,0,0.922,0.011,1.309,0.033
		c0.386,0.022,0.736,0.121,1.051,0.296c0.543,0.527,0.887,1.132,1.03,1.813c0.143,0.682,0.157,1.362,0.043,2.043
		c-0.115,0.682-0.337,1.318-0.666,1.911c-0.329,0.594-0.708,1.066-1.137,1.417h-0.515c-0.144,0-0.322-0.01-0.537-0.033
		c-0.214-0.021-0.451-0.032-0.708-0.032c-0.887,0-1.803,0.22-2.747,0.658c-0.944,0.44-1.846,1-2.704,1.681
		c-0.858,0.682-1.646,1.417-2.36,2.208c-0.716,0.791-1.288,1.539-1.717,2.241c1.173,0,2.324-0.22,3.455-0.659
		c1.13-0.438,2.224-0.988,3.283-1.647c1.059-0.659,2.067-1.384,3.026-2.175c0.958-0.791,1.846-1.517,2.661-2.175
		c0.815-0.659,1.56-1.208,2.232-1.648c0.672-0.438,1.237-0.658,1.695-0.658c0.715,0,1.266,0.329,1.652,0.988
		c0.387,0.659,0.723,1.506,1.009,2.537c0.285,1.033,0.586,2.175,0.901,3.427C143.126,43.454,143.584,44.673,144.185,45.859z"/>
	<path fill="#322D2B" d="M158.262,30.899c0.43-0.307,0.873-0.483,1.331-0.527c0.457-0.043,0.887,0.077,1.287,0.362
		c0.4,0.287,0.752,0.715,1.052,1.285c0.301,0.572,0.494,1.275,0.58,2.109c-0.229,0.527-0.444,1.121-0.645,1.779
		c-0.2,0.572-0.4,1.264-0.601,2.076c-0.2,0.813-0.401,1.726-0.601,2.735c0.571-0.791,1.323-1.813,2.253-3.064
		s1.945-2.46,3.048-3.625c1.101-1.164,2.238-2.175,3.412-3.032c1.173-0.856,2.289-1.285,3.348-1.285s2.023,0.231,2.897,0.692
		c0.872,0.461,1.623,1.187,2.253,2.175c0.629,0.989,1.116,2.263,1.459,3.823c0.344,1.56,0.516,3.46,0.516,5.7
		c0,1.978-0.115,3.669-0.344,5.075c-0.229,1.406-0.479,2.56-0.751,3.46c-0.272,0.899-0.651,1.79-1.138,2.669
		c-0.2,0-0.415-0.692-0.644-2.076c-0.229-1.384-0.344-3.262-0.344-5.635c0-1.361-0.136-2.592-0.407-3.69
		c-0.272-1.098-0.608-2.032-1.009-2.801c-0.401-0.769-0.815-1.361-1.244-1.78c-0.43-0.417-0.802-0.626-1.116-0.626
		c-0.573,0-1.252,0.353-2.039,1.055c-0.787,0.703-1.624,1.593-2.511,2.669c-0.888,1.077-1.796,2.23-2.726,3.46
		c-0.93,1.23-1.831,2.385-2.704,3.46c-0.873,1.077-1.681,1.968-2.425,2.67c-0.744,0.703-1.359,1.054-1.846,1.054
		c-0.487,0-0.916-0.175-1.287-0.526c-0.373-0.352-0.702-0.791-0.987-1.318c-0.287-0.527-0.501-1.12-0.645-1.779
		s-0.214-1.296-0.214-1.911c0-1.361,0.149-2.955,0.45-4.778s0.637-3.504,1.009-5.042c0.371-1.537,0.693-2.79,0.966-3.757
		C158.169,30.987,158.29,30.635,158.262,30.899z"/>
	<path fill="#322D2B" d="M193.672,50.539c-0.286-1.318-0.422-2.604-0.407-3.855c0.014-1.253,0.007-2.229-0.021-2.934
		c-0.63,0.791-1.367,1.714-2.211,2.769s-1.738,2.142-2.683,3.262c-0.943,1.121-1.917,2.241-2.918,3.361
		c-1.002,1.121-1.968,2.175-2.897,3.164c-0.93,0.988-1.81,1.878-2.64,2.669s-1.545,1.405-2.146,1.846
		c-0.858,0.614-1.659,1.13-2.404,1.549c-0.743,0.417-1.38,0.725-1.91,0.922c-0.528,0.198-0.937,0.297-1.223,0.297
		s-0.415-0.132-0.387-0.396c0-0.176,0.172-0.483,0.516-0.923c0.343-0.439,0.751-0.9,1.223-1.384c0.473-0.484,0.944-0.967,1.417-1.45
		c0.472-0.483,0.852-0.879,1.137-1.186c0.458-0.44,1.116-1.177,1.975-2.208c0.858-1.033,1.831-2.241,2.919-3.625
		c1.087-1.384,2.225-2.899,3.412-4.548c1.187-1.647,2.317-3.306,3.391-4.976c1.073-1.669,2.031-3.284,2.876-4.844
		c0.844-1.56,1.48-2.977,1.91-4.251c0.171-0.439,0.393-0.867,0.665-1.285c0.271-0.417,0.572-0.758,0.901-1.021
		c0.328-0.264,0.672-0.439,1.03-0.527c0.357-0.088,0.708-0.043,1.051,0.132c0.4,0.22,0.723,0.527,0.966,0.922
		c0.243,0.396,0.43,0.824,0.559,1.286c0.129,0.461,0.207,0.934,0.235,1.417s0.028,0.922,0,1.317c0,0.88-0.071,1.803-0.214,2.769
		c-0.144,0.967-0.266,1.967-0.365,2.999c-0.101,1.032-0.157,2.054-0.172,3.064s0.107,2,0.365,2.966c0,0.615-0.029,1.23-0.086,1.845
		c-0.058,0.527-0.129,1.077-0.215,1.647c-0.086,0.571-0.215,1.032-0.386,1.385c-0.229,0.438-0.494,0.647-0.794,0.626
		c-0.301-0.022-0.608-0.177-0.923-0.462c-0.315-0.286-0.608-0.648-0.88-1.087C194.065,51.352,193.844,50.935,193.672,50.539z"/>
	<path fill="#322D2B" d="M216.248,48.43c0-0.22,0.015-0.549,0.043-0.988s0.064-0.9,0.107-1.385c0.043-0.482,0.093-0.966,0.15-1.449
		c0.057-0.483,0.1-0.857,0.129-1.121c-0.659,1.012-1.359,1.978-2.104,2.9s-1.502,1.736-2.274,2.438
		c-0.772,0.703-1.546,1.274-2.318,1.714s-1.517,0.658-2.231,0.658c-1.946,0-3.441-0.713-4.485-2.142
		c-1.045-1.427-1.566-3.724-1.566-6.887c0-1.493,0.156-3.087,0.472-4.778c0.314-1.691,0.987-3.701,2.018-6.03
		c0.429-0.747,0.829-1.274,1.202-1.582c0.371-0.307,0.7-0.461,0.986-0.461c0.602,0,1.009,0.407,1.224,1.219
		c0.215,0.814,0.322,1.813,0.322,2.999c-0.401,1.274-0.837,2.581-1.31,3.921c-0.472,1.341-0.708,2.779-0.708,4.317
		c0,1.274,0.193,2.153,0.579,2.636c0.387,0.484,0.822,0.726,1.31,0.726c0.629,0,1.38-0.396,2.253-1.187s1.745-1.735,2.618-2.834
		c0.873-1.098,1.702-2.251,2.489-3.46c0.787-1.208,1.396-2.229,1.824-3.064c0.486-0.967,1.002-1.714,1.546-2.241
		c0.543-0.527,1.015-0.791,1.416-0.791c0.687,0,1.108,0.659,1.266,1.977s-0.021,3.12-0.536,5.404
		c-0.315,1.45-0.579,2.647-0.794,3.592c-0.215,0.945-0.408,1.802-0.579,2.57c-0.172,0.77-0.33,1.527-0.473,2.273
		c-0.144,0.748-0.286,1.626-0.429,2.637c-0.115,0.703-0.223,1.417-0.322,2.142c-0.101,0.725-0.215,1.285-0.344,1.681
		c-0.128,0.396-0.278,0.527-0.45,0.396s-0.387-0.703-0.644-1.714c-0.229-0.879-0.351-1.636-0.365-2.273
		C216.255,49.605,216.248,49.001,216.248,48.43z"/>
	<path fill="#322D2B" d="M235.605,30.833c1.373,0,2.396,0.78,3.068,2.339c0.672,1.561,0.951,3.483,0.837,5.768
		c0.688-1.187,1.409-2.361,2.168-3.526c0.758-1.163,1.56-2.208,2.403-3.13s1.738-1.681,2.683-2.273
		c0.944-0.593,1.945-0.89,3.005-0.89c1.401,0,2.561,0.44,3.477,1.318c0.915,0.879,1.638,1.944,2.167,3.196s0.901,2.57,1.116,3.954
		c0.215,1.385,0.322,2.582,0.322,3.592c0,2.637-0.244,5.272-0.73,7.909c-0.486,2.636-1.059,4.942-1.717,6.92
		c-0.944,2.943-1.731,4.943-2.36,5.997c-0.63,1.055-1.045,1.582-1.245,1.582c-0.171,0-0.25-0.221-0.235-0.659
		c0.014-0.439,0.064-0.955,0.15-1.549c0.085-0.593,0.192-1.209,0.321-1.845c0.129-0.638,0.236-1.177,0.322-1.615
		c0.314-1.538,0.65-3.482,1.009-5.832c0.357-2.351,0.536-5.24,0.536-8.667c0-2.328-0.322-4.107-0.966-5.339
		c-0.644-1.229-1.323-1.845-2.038-1.845c-0.831,0-1.632,0.374-2.404,1.12c-0.772,0.748-1.538,1.671-2.296,2.769
		c-0.759,1.099-1.496,2.307-2.211,3.624c-0.715,1.318-1.431,2.527-2.146,3.625c-0.716,1.099-1.424,2.021-2.125,2.769
		s-1.395,1.12-2.081,1.12c-0.888,0-1.496-0.483-1.824-1.45c-0.329-0.966-0.516-2.108-0.559-3.427s0-2.646,0.129-3.987
		c0.129-1.34,0.236-2.383,0.322-3.131c-0.63,0.616-1.288,1.462-1.975,2.538c-0.687,1.077-1.395,2.131-2.124,3.163
		c-0.73,1.033-1.481,1.934-2.254,2.702c-0.772,0.77-1.56,1.153-2.36,1.153c-0.372,0-0.729-0.153-1.073-0.461
		s-0.644-0.703-0.901-1.187s-0.466-1.021-0.622-1.615c-0.158-0.593-0.236-1.196-0.236-1.813c0-1.845,0.078-3.404,0.236-4.679
		c0.156-1.274,0.328-2.304,0.515-3.089c0.186-0.784,0.451-1.524,0.794-2.22c0.43-0.521,0.865-0.922,1.31-1.204
		c0.443-0.282,0.851-0.347,1.223-0.195c0.372,0.152,0.693,0.554,0.966,1.205c0.271,0.65,0.465,1.629,0.58,2.933l-0.43,1.977
		c0.486-0.614,1.03-1.359,1.631-2.232c0.602-0.873,1.224-1.711,1.867-2.515c0.644-0.803,1.288-1.487,1.932-2.051
		C234.425,31.115,235.032,30.833,235.605,30.833z M245.177,20.156c0.715,0.088,1.48,0.23,2.296,0.428s1.573,0.44,2.275,0.725
		c0.7,0.286,1.315,0.583,1.846,0.89c0.528,0.308,0.88,0.572,1.051,0.791c0,0.22-0.114,0.494-0.343,0.824
		c-0.229,0.33-0.522,0.637-0.88,0.923c-0.358,0.286-0.787,0.55-1.288,0.791c-0.501,0.242-1.023,0.385-1.566,0.429
		c-1.002,0.132-2.082,0.253-3.24,0.362c-1.159,0.11-2.34,0.22-3.541,0.33c-1.202,0.11-2.383,0.22-3.541,0.33
		c-1.159,0.11-2.254,0.23-3.283,0.362c-0.745,0.089-1.389,0.176-1.932,0.264c-0.544,0.088-1.045,0.165-1.503,0.23
		s-0.895,0.132-1.309,0.198c-0.415,0.066-0.866,0.122-1.352,0.165c-0.401-0.219-0.73-0.549-0.987-0.989
		c-0.258-0.438-0.43-0.922-0.516-1.45s-0.079-1.076,0.021-1.648c0.101-0.57,0.293-1.076,0.58-1.516
		c2.688-0.791,5.515-1.384,8.477-1.779C239.403,20.42,242.315,20.201,245.177,20.156z"/>
	<path fill="#322D2B" d="M269.169,51.461c-0.601,0-1.287-0.077-2.06-0.23c-0.772-0.154-1.545-0.438-2.318-0.856
		c-0.772-0.417-1.487-1.032-2.146-1.846c-0.658-0.813-1.174-1.878-1.545-3.196h-0.559c-0.343-0.307-0.622-0.714-0.837-1.219
		s-0.337-1.055-0.364-1.648c-0.029-0.593,0.043-1.175,0.214-1.746c0.172-0.57,0.501-1.076,0.987-1.516h0.559
		c0.515-2.064,1.315-3.877,2.403-5.438c1.087-1.559,2.317-2.844,3.691-3.855c1.373-1.01,2.847-1.768,4.421-2.273
		c1.573-0.505,3.118-0.735,4.635-0.692c0.458,0,1.009,0.066,1.652,0.198c0.645,0.132,1.252,0.374,1.824,0.725
		c0.572,0.352,1.059,0.868,1.46,1.549c0.4,0.682,0.601,1.593,0.601,2.735c0,1.318-0.301,2.527-0.901,3.625
		c-0.601,1.1-1.373,2.109-2.317,3.032s-2.018,1.758-3.22,2.504c-1.201,0.748-2.396,1.374-3.584,1.879
		c-1.188,0.506-2.317,0.912-3.391,1.219c-1.072,0.309-1.968,0.484-2.683,0.527c0.344,0.527,0.88,0.956,1.61,1.285
		c0.729,0.33,1.523,0.571,2.382,0.726s1.745,0.263,2.661,0.329c0.915,0.065,1.745,0.121,2.489,0.165s1.352,0.099,1.824,0.164
		c0.472,0.066,0.708,0.188,0.708,0.363c0,0.22-0.2,0.526-0.601,0.922c-0.401,0.396-0.959,0.781-1.674,1.153
		c-0.716,0.374-1.574,0.704-2.575,0.989C271.516,51.318,270.399,51.461,269.169,51.461z M266.122,38.808
		c1.917-0.438,3.741-1.109,5.473-2.011c1.73-0.899,3.283-2.01,4.656-3.328c-1.145,0-2.268,0.154-3.369,0.462
		s-2.118,0.703-3.047,1.187c-0.931,0.483-1.717,1.054-2.361,1.713C266.83,37.489,266.38,38.148,266.122,38.808z"/>
</g>
<g>
	<g>
		<path fill="#ED996C" d="M56.221,50.922c1.556-1.061,4.268-5.476,5.856-5.521c0.738-0.003,2.888,0.425,5.306,0.433
			c1.925,0,3.673-0.444,4.257-0.444c1.328,0,0.974,1.903-1.063,2.458c-2.037,0.557-6.109,1.974-10.093,5.426
			C56.5,56.726,55.424,51.632,56.221,50.922z"/>
		<image overflow="visible" width="17" height="9" xlink:href="894E34FA.png"  transform="matrix(1 0 0 1 55.875 45.125)">
		</image>
		<image overflow="visible" width="8" height="4" xlink:href="894E34E8.png"  transform="matrix(1 0 0 1 60.875 45.125)">
		</image>
	</g>
	<image overflow="visible" width="35" height="18" xlink:href="894E34E9.png"  transform="matrix(1 0 0 1 31.875 14.125)">
	</image>
	<g>
		<image overflow="visible" width="32" height="13" xlink:href="894E34EA.png"  transform="matrix(1 0 0 1 34.875 15.125)">
		</image>
	</g>
	<image overflow="visible" width="9" height="7" xlink:href="894E34EB.png"  transform="matrix(1 0 0 1 57.875 21.125)">
	</image>
	<g opacity="0.1">
		<image overflow="visible" width="28" height="9" xlink:href="894E34EF.png"  transform="matrix(1 0 0 1 35.875 22.125)">
		</image>
	</g>
	<path opacity="0.9366" fill="#9E8C7A" d="M66.535,23.408c0,0-0.684-1.727-3.029-1.273s-5.424,3.828-4.408,5.351
		C60.114,29.008,66.535,23.408,66.535,23.408z"/>
	<image overflow="visible" width="9" height="7" xlink:href="894E34E5.png"  transform="matrix(1 0 0 1 57.875 21.125)">
	</image>
	<path fill="#B7A795" d="M58.932,27.834c0,0-1.346-1.64,1.993-4.55c3.338-2.91,5.345-0.588,5.345-0.588l-0.166,0.265
		c0,0-2.093-1.992-4.943,0.515c-2.565,2.256-2.353,3.91-1.673,4.501C60.167,28.567,58.932,27.834,58.932,27.834z"/>
	<path fill="#DDDDD3" d="M39.901,46.428c0,0,4.804,3.054,5.694,18.339c0,0-18.11,2.146-25.527-4.344c0,0-6.732-5.536,1.43-15.034
		L39.901,46.428z"/>
	
		<image overflow="visible" opacity="0.3" width="16" height="20" xlink:href="894E34E6.png"  transform="matrix(1 0 0 1 28.875 45.125)">
	</image>
	<g>
		<image overflow="visible" width="23" height="9" xlink:href="D84DA7B0.png"  transform="matrix(1 0 0 1 19.875 45.125)">
		</image>
	</g>
	<g>
		<image overflow="visible" width="6" height="19" xlink:href="D84DA7B1.png"  transform="matrix(1 0 0 1 40.875 47.125)">
		</image>
		<image overflow="visible" width="9" height="17" xlink:href="D84DA7D8.png"  transform="matrix(1 0 0 1 16.875 46.125)">
		</image>
	</g>
	<image overflow="visible" width="22" height="9" xlink:href="D84DA7D9.png"  transform="matrix(1 0 0 1 19.875 43.125)">
	</image>
	
		<image overflow="visible" opacity="0.5" width="12" height="5" xlink:href="D84DA7DA.png"  transform="matrix(1 0 0 1 19.875 44.125)">
	</image>
	<path fill="#DDDDD3" d="M31.146,52.364c0,0,15.879,5.936,25.081-2.82c0,0,5.936,0.742,5.491,7.272c0,0-14.247,15.286-37.844,4.601
		C23.873,61.417,21.202,48.506,31.146,52.364z"/>
	<g>
		<g>
			
				<linearGradient id="SVGID_1_" gradientUnits="userSpaceOnUse" x1="-972.6094" y1="-1146.1064" x2="-972.0059" y2="-1146.1064" gradientTransform="matrix(0.0035 1 1 -0.0035 1213.465 1003.7595)">
				<stop  offset="0" style="stop-color:#283F1F"/>
				<stop  offset="1" style="stop-color:#52634B"/>
			</linearGradient>
			<polygon fill="url(#SVGID_1_)" points="63.71,35.656 64.205,35.765 64.203,35.298 63.956,35.161 63.709,35.469 			"/>
			
				<linearGradient id="SVGID_2_" gradientUnits="userSpaceOnUse" x1="202.0254" y1="33.1563" x2="202.5195" y2="33.1563" gradientTransform="matrix(-1 0 0 1 266.2842 0)">
				<stop  offset="0" style="stop-color:#283F1F"/>
				<stop  offset="1" style="stop-color:#52634B"/>
			</linearGradient>
			<polygon fill="url(#SVGID_2_)" points="63.951,32.937 64.258,33.156 63.951,33.376 63.765,33.156 			"/>
			
				<linearGradient id="SVGID_3_" gradientUnits="userSpaceOnUse" x1="-357.397" y1="-972.3145" x2="-356.8691" y2="-972.3145" gradientTransform="matrix(-0.5269 0.8499 0.8499 0.5269 703.7898 851.7838)">
				<stop  offset="0" style="stop-color:#283F1F"/>
				<stop  offset="1" style="stop-color:#52634B"/>
			</linearGradient>
			<polygon fill="url(#SVGID_3_)" points="65.533,35.597 65.791,35.756 65.931,35.843 65.653,36.291 65.454,36.168 65.593,35.944 
							"/>
			
				<linearGradient id="SVGID_4_" gradientUnits="userSpaceOnUse" x1="-1029.501" y1="1208.6133" x2="-1028.6494" y2="1208.6133" gradientTransform="matrix(0.0589 -0.9983 -0.9983 -0.0589 1329.7419 -918.7517)">
				<stop  offset="0" style="stop-color:#283F1F"/>
				<stop  offset="1" style="stop-color:#52634B"/>
			</linearGradient>
			<polygon fill="url(#SVGID_4_)" points="62.862,37.555 62.434,37.805 62.251,37.656 62.293,36.943 62.586,37.098 			"/>
			
				<linearGradient id="SVGID_5_" gradientUnits="userSpaceOnUse" x1="-1799.1792" y1="-792.3203" x2="-1798.2729" y2="-792.3203" gradientTransform="matrix(0.6853 0.7282 0.7282 -0.6853 1874.3464 806.3423)">
				<stop  offset="0" style="stop-color:#283F1F"/>
				<stop  offset="1" style="stop-color:#52634B"/>
			</linearGradient>
			<polygon fill="url(#SVGID_5_)" points="64.435,39.653 64.431,39.129 65.121,39.46 65.022,39.816 64.577,39.805 			"/>
		</g>
		<g>
			
				<linearGradient id="SVGID_6_" gradientUnits="userSpaceOnUse" x1="-1202.8354" y1="-1121.1133" x2="-1202.481" y2="-1121.1133" gradientTransform="matrix(0.2103 0.9776 0.9776 -0.2103 1411.8223 974.5366)">
				<stop  offset="0" style="stop-color:#283F1F"/>
				<stop  offset="1" style="stop-color:#52634B"/>
			</linearGradient>
			<polygon fill="url(#SVGID_6_)" points="62.839,34.783 63.063,34.535 62.874,34.413 62.729,34.517 62.764,34.734 			"/>
			
				<linearGradient id="SVGID_7_" gradientUnits="userSpaceOnUse" x1="-357.6426" y1="-981.8794" x2="-357.4346" y2="-981.8794" gradientTransform="matrix(-0.5146 0.8574 0.8574 0.5146 722.0896 845.8265)">
				<stop  offset="0" style="stop-color:#283F1F"/>
				<stop  offset="1" style="stop-color:#52634B"/>
			</linearGradient>
			<polygon fill="url(#SVGID_7_)" points="64.074,34.034 64.18,33.855 64.358,33.963 64.238,34.086 			"/>
			
				<linearGradient id="SVGID_8_" gradientUnits="userSpaceOnUse" x1="-156.4609" y1="872.8818" x2="-156.1709" y2="872.8818" gradientTransform="matrix(-0.702 -0.7122 -0.7122 0.702 576.6923 -689.0908)">
				<stop  offset="0" style="stop-color:#283F1F"/>
				<stop  offset="1" style="stop-color:#52634B"/>
			</linearGradient>
			<polygon fill="url(#SVGID_8_)" points="64.849,34.806 64.847,35.008 64.846,35.118 64.593,35.116 64.594,34.96 64.72,34.961 			
				"/>
			
				<linearGradient id="SVGID_9_" gradientUnits="userSpaceOnUse" x1="-299.3608" y1="-909.814" x2="-299.0225" y2="-909.814" gradientTransform="matrix(-0.5798 0.8148 0.8148 0.5798 630.8768 810.1432)">
				<stop  offset="0" style="stop-color:#283F1F"/>
				<stop  offset="1" style="stop-color:#52634B"/>
			</linearGradient>
			<polygon fill="url(#SVGID_9_)" points="62.741,38.845 62.991,38.669 63.128,38.713 63.185,39.052 62.976,39.02 			"/>
			
				<linearGradient id="SVGID_10_" gradientUnits="userSpaceOnUse" x1="201.5723" y1="37.3857" x2="201.9434" y2="37.3857" gradientTransform="matrix(-1 0 0 1 266.2842 0)">
				<stop  offset="0" style="stop-color:#283F1F"/>
				<stop  offset="1" style="stop-color:#52634B"/>
			</linearGradient>
			<polygon fill="url(#SVGID_10_)" points="64.412,37.181 64.711,37.219 64.599,37.591 64.384,37.507 64.341,37.251 			"/>
		</g>
	</g>
	<path fill="#ED996C" d="M37.161,19.859c0,0,2.885,7.1,4.89,8.294c2.86,1.705,7.271,5.158,1.375,11.649c0,0,1.443,6.905-6.265,6.47
		c0,0-5.651,4.346-11.619-0.656c-1.058-0.886-1.209-2.242-1.209-2.242s-4.439,1.015-6.273-3.571s4.099-4.877,5.487-3.625
		l-1.132-8.024L37.161,19.859z"/>
	<image overflow="visible" width="19" height="22" xlink:href="D84DA7E3.png"  transform="matrix(1 0 0 1 25.875 23.125)">
	</image>
	
		<image overflow="visible" opacity="0.5" width="10" height="10" xlink:href="D84DA7E4.png"  transform="matrix(1 0 0 1 25.875 28.125)">
	</image>
	
		<image overflow="visible" opacity="0.5" width="8" height="8" xlink:href="D84DA7E5.png"  transform="matrix(1 0 0 1 34.875 24.125)">
	</image>
	<image overflow="visible" width="18" height="10" xlink:href="D84DA7E6.png"  transform="matrix(1 0 0 1 25.875 38.125)">
	</image>
	<image overflow="visible" width="10" height="8" xlink:href="D84DA7E7.png"  transform="matrix(1 0 0 1 27.875 35.125)">
	</image>
	<image overflow="visible" width="10" height="11" xlink:href="D84DA7F8.png"  transform="matrix(1 0 0 1 28.875 21.125)">
	</image>
	<image overflow="visible" width="7" height="7" xlink:href="D84DA7C5.png"  transform="matrix(1 0 0 1 39.875 29.125)">
	</image>
	<image overflow="visible" width="19" height="17" xlink:href="D84DA7C7.png"  transform="matrix(1 0 0 1 19.875 19.125)">
	</image>
	<image overflow="visible" width="14" height="5" xlink:href="D84DA7C6.png"  transform="matrix(1 0 0 1 23.875 43.125)">
	</image>
	<image overflow="visible" width="10" height="13" xlink:href="D84DA7C3.png"  transform="matrix(1 0 0 1 36.875 20.125)">
	</image>
	<path fill="#1C1C1C" d="M17.677,30.403c0,0,2.674,6.79-3.667,6.681c0,0,0.917,2.47,3.361,2.402c0,0,0.382,2.723-2.445,3.888
		c0,0,3.534,1.413,5.594,1.159c1.689-0.208,5.07,1.127,5.07,1.127s-1.125-1.172-1.258-2.286c0,0-4.822,0.535-5.892-3.888
		c-1.07-4.422,3.947-3.479,5.105-2.402c1.182,1.098,3.681-0.264,2.611-1.867c-1.069-1.604-4.584-4.813-2.139-6.571
		C26.464,26.889,17.677,30.403,17.677,30.403z"/>
	<path fill="#E8E8E0" d="M37.851,19.962c0,0-6.191,8.073-20.708,11.129l-2.75-4.202c0,0-6.354,1.606-11.165-4.768
		c-4.229-5.604,3.83-11.048,3.83-11.048s0-5.348,6.647-8.099s10.315,0,10.315,0s8.023-4.126,11.614,2.216s-0.306,9.446-0.306,9.446
		L37.851,19.962z"/>
	<image overflow="visible" width="36" height="25" xlink:href="D84DA7C0.png"  transform="matrix(1 0 0 1 1.875 6.125)">
	</image>
	<g>
		<path fill="#1C1C1C" d="M26.877,39.522c0,0,1.966,3.456,6.34,2.228c3.821-1.073,4.771-3.702,4.771-3.702l4.786-2.136
			c0,0,5.501-0.726,2.604-6.612c0,0,6.146,7.57,0.458,10.621c-1.74,0.934-2.662,0.307-3.696,0.381c-0.568,0.04-0.88,0.129-1.3,0.514
			c-0.836,0.767-1.979,3.485-4.388,4.529C31.85,47.338,27.178,44.776,26.877,39.522z"/>
		<image overflow="visible" width="21" height="15" xlink:href="D84DA7C1.png"  transform="matrix(1 0 0 1 26.875 31.125)">
		</image>
		<g>
			<g>
				
					<image overflow="visible" opacity="0.2" width="3" height="6" xlink:href="D84DA7C2.png"  transform="matrix(1 0 0 1 37.875 37.125)">
				</image>
				
					<image overflow="visible" opacity="0.2" width="4" height="7" xlink:href="D84DA7AB.png"  transform="matrix(1 0 0 1 34.875 38.125)">
				</image>
				
					<image overflow="visible" opacity="0.2" width="4" height="4" xlink:href="D84DA7AC.png"  transform="matrix(1 0 0 1 28.875 42.125)">
				</image>
				
					<image overflow="visible" opacity="0.2" width="4" height="5" xlink:href="D84DA820.png"  transform="matrix(1 0 0 1 31.875 41.125)">
				</image>
				
					<image overflow="visible" opacity="0.2" width="3" height="5" xlink:href="D84DA849.png"  transform="matrix(1 0 0 1 38.875 37.125)">
				</image>
				
					<image overflow="visible" opacity="0.2" width="3" height="7" xlink:href="D84DA848.png"  transform="matrix(1 0 0 1 36.875 37.125)">
				</image>
				
					<image overflow="visible" opacity="0.2" width="5" height="7" xlink:href="D84DA84F.png"  transform="matrix(1 0 0 1 32.875 39.125)">
				</image>
			</g>
			<g>
				
					<image overflow="visible" opacity="0.2" width="3" height="5" xlink:href="D84DA84C.png"  transform="matrix(1 0 0 1 36.875 37.125)">
				</image>
				
					<image overflow="visible" opacity="0.2" width="4" height="6" xlink:href="D84DA84D.png"  transform="matrix(1 0 0 1 34.875 38.125)">
				</image>
				
					<image overflow="visible" opacity="0.2" width="3" height="2" xlink:href="D84DA84E.png"  transform="matrix(1 0 0 1 29.875 42.125)">
				</image>
				
					<image overflow="visible" opacity="0.2" width="4" height="2" xlink:href="D84DA844.png"  transform="matrix(1 0 0 1 27.875 41.125)">
				</image>
				
					<image overflow="visible" opacity="0.2" width="5" height="3" xlink:href="D84DA850.png"  transform="matrix(1 0 0 1 30.875 41.125)">
				</image>
				
					<image overflow="visible" opacity="0.2" width="4" height="3" xlink:href="D84DA851.png"  transform="matrix(1 0 0 1 37.875 37.125)">
				</image>
				
					<image overflow="visible" opacity="0.2" width="4" height="6" xlink:href="D84DA815.png"  transform="matrix(1 0 0 1 35.875 37.125)">
				</image>
				
					<image overflow="visible" opacity="0.2" width="5" height="4" xlink:href="D84DA814.png"  transform="matrix(1 0 0 1 31.875 40.125)">
				</image>
				
					<image overflow="visible" opacity="0.2" width="5" height="4" xlink:href="D84DA812.png"  transform="matrix(1 0 0 1 26.875 40.125)">
				</image>
			</g>
		</g>
		<g>
			<g>
				
					<image overflow="visible" opacity="0.2" width="4" height="4" xlink:href="D84DA80F.png"  transform="matrix(1 0 0 1 39.875 36.125)">
				</image>
				
					<image overflow="visible" opacity="0.2" width="6" height="4" xlink:href="D84DA871.png"  transform="matrix(1 0 0 1 40.875 36.125)">
				</image>
				
					<image overflow="visible" opacity="0.2" width="4" height="3" xlink:href="D84DA872.png"  transform="matrix(1 0 0 1 44.875 33.125)">
				</image>
				
					<image overflow="visible" opacity="0.2" width="5" height="5" xlink:href="D84DA873.png"  transform="matrix(1 0 0 1 42.875 34.125)">
				</image>
				
					<image overflow="visible" opacity="0.2" width="3" height="4" xlink:href="D84DA874.png"  transform="matrix(1 0 0 1 39.875 37.125)">
				</image>
				
					<image overflow="visible" opacity="0.2" width="4" height="4" xlink:href="D84DA875.png"  transform="matrix(1 0 0 1 40.875 36.125)">
				</image>
				
					<image overflow="visible" opacity="0.2" width="6" height="5" xlink:href="D84DA876.png"  transform="matrix(1 0 0 1 41.875 35.125)">
				</image>
			</g>
			<g>
				
					<image overflow="visible" opacity="0.2" width="4" height="3" xlink:href="D84DA810.png"  transform="matrix(1 0 0 1 39.875 36.125)">
				</image>
				
					<image overflow="visible" opacity="0.2" width="5" height="2" xlink:href="D84DA811.png"  transform="matrix(1 0 0 1 40.875 36.125)">
				</image>
				
					<image overflow="visible" opacity="0.2" width="2" height="2" xlink:href="D84DA8D0.png"  transform="matrix(1 0 0 1 44.875 33.125)">
				</image>
				
					<image overflow="visible" opacity="0.2" width="1" height="4" xlink:href="D84DA8D1.png"  transform="matrix(1 0 0 1 45.875 31.125)">
				</image>
				
					<image overflow="visible" opacity="0.2" width="4" height="2" xlink:href="D84DA8DE.png"  transform="matrix(1 0 0 1 42.875 34.125)">
				</image>
				
					<image overflow="visible" opacity="0.2" width="3" height="2" xlink:href="D84DA8DF.png"  transform="matrix(1 0 0 1 39.875 37.125)">
				</image>
				
					<image overflow="visible" opacity="0.2" width="4" height="2" xlink:href="D84DA8D8.png"  transform="matrix(1 0 0 1 40.875 36.125)">
				</image>
				
					<image overflow="visible" opacity="0.2" width="5" height="2" xlink:href="D84DA8D9.png"  transform="matrix(1 0 0 1 41.875 35.125)">
				</image>
				
					<image overflow="visible" opacity="0.2" width="2" height="5" xlink:href="D84DA8DC.png"  transform="matrix(1 0 0 1 45.875 30.125)">
				</image>
			</g>
		</g>
	</g>
	<g>
		<image overflow="visible" width="10" height="7" xlink:href="D84DA8DD.png"  transform="matrix(1 0 0 1 35.875 35.125)">
		</image>
	</g>
	<path fill="#D86D4C" d="M41.173,32.937c1.172,0.066,3.451,0.117,3.399,3.241c-0.06,3.576-5.194,3.466-6.452,2.132
		c-2.949-3.128-0.714-7.219-0.714-7.219S39.182,32.823,41.173,32.937z"/>
	<image overflow="visible" width="9" height="5" xlink:href="D84DA8F6.png"  transform="matrix(1 0 0 1 35.875 35.125)">
	</image>
	<image overflow="visible" width="7" height="7" xlink:href="D84DA8F8.png"  transform="matrix(1 0 0 1 37.875 32.125)">
	</image>
	<image overflow="visible" width="8" height="9" xlink:href="D84DA8F9.png"  transform="matrix(1 0 0 1 36.875 30.125)">
	</image>
	<path fill="#1C1C1C" d="M29.087,29.901c-1.21,1.186-1.21,2.315-2.169,1.968c-1.478-0.536-0.38-2.67,0.836-3.377
		c1.217-0.708,2.811-1.176,2.955-0.158C30.837,29.232,29.894,29.11,29.087,29.901z"/>
	<path fill="#1C1C1C" d="M36.989,22.224c1.082-0.517,3.082-0.153,2.723,1.25c-0.232,0.91-1.006,0.283-2.413,0.53
		c-0.938,0.165-1.316,0.938-1.869,0.344C34.804,23.673,35.907,22.741,36.989,22.224z"/>
	<g>
		<image overflow="visible" width="38" height="14" xlink:href="D84DA8FA.png"  transform="matrix(1 0 0 1 23.875 49.125)">
		</image>
	</g>
	<g opacity="0.1606">
		<image overflow="visible" width="36" height="11" xlink:href="D84DA8FB.png"  transform="matrix(1 0 0 1 24.875 54.125)">
		</image>
	</g>
	<g>
		<image overflow="visible" width="7" height="9" xlink:href="D84DA8FC.png"  transform="matrix(1 0 0 1 54.875 49.125)">
		</image>
	</g>
	<path fill="#ED996C" d="M58.956,27.843c0,0,1.259-2.087,1.774-2.644c2.265-2.445,5.587-2.517,5.587-2.517s4.2-0.162,6.539,1.569
		c1.853,1.371,0.506,3.229-0.704,2.52c-1.075-0.63-1.779-0.519-1.779-0.519s2.056,1.91,2.334,3.707
		c0.408,2.631-2.483,2.375-2.631,1.371c-0.198-1.345-1.148-2.112-1.148-2.112s0.164,3.938-2.355,4.929
		c-1.865,0.732-2.279-1.434-1.54-2.116c1.335-1.233,0.621-2.989,0.132-3.747c-0.495-0.766-2.207-0.864-3.021-0.303
		c-0.822,0.566-1.322,2.167-0.804,3.093c0.519,0.927,2.188,1.62,1.229,2.813c-0.843,1.051-2.335,0.557-3.633-1.408
		C57.64,30.515,58.956,27.843,58.956,27.843z"/>
	<image overflow="visible" width="5" height="6" xlink:href="D84DA8FD.png"  transform="matrix(1 0 0 1 38.875 40.125)">
	</image>
	<g opacity="0.932">
		<image overflow="visible" width="14" height="20" xlink:href="D84DA8FE.png"  transform="matrix(1 0 0 1 18.875 4.125)">
		</image>
	</g>
	
		<image overflow="visible" opacity="0.932" width="8" height="10" xlink:href="D84DA8FF.png"  transform="matrix(1 0 0 1 13.875 20.125)">
	</image>
	<g>
		<image overflow="visible" width="12" height="12" xlink:href="D84DA8C7.png"  transform="matrix(1 0 0 1 15.875 6.125)">
		</image>
	</g>
	<g>
		<image overflow="visible" width="18" height="14" xlink:href="D84DA8CC.png"  transform="matrix(1 0 0 1 1.875 12.125)">
		</image>
	</g>
	<image overflow="visible" width="10" height="14" xlink:href="D84DA8CD.png"  transform="matrix(1 0 0 1 26.875 2.125)">
	</image>
	<image overflow="visible" width="18" height="12" xlink:href="D84DA8CE.png"  transform="matrix(1 0 0 1 6.875 1.125)">
	</image>
	<image overflow="visible" width="15" height="15" xlink:href="D84DA8CF.png"  transform="matrix(1 0 0 1 22.875 1.125)">
	</image>
	
		<image overflow="visible" opacity="0.1" width="21" height="21" xlink:href="D84DA8F0.png"  transform="matrix(1 0 0 1 12.875 44.125)">
	</image>
	<g>
		<defs>
			<filter id="Adobe_OpacityMaskFilter" filterUnits="userSpaceOnUse" x="17.875" y="30.125" width="3" height="6">
				<feColorMatrix  type="matrix" values="1 0 0 0 0  0 1 0 0 0  0 0 1 0 0  0 0 0 1 0"/>
			</filter>
		</defs>
		<mask maskUnits="userSpaceOnUse" x="17.875" y="30.125" width="3" height="6" id="SVGID_11_">
			<g filter="url(#Adobe_OpacityMaskFilter)">
				
					<image overflow="visible" width="2.68" height="5.833" xlink:href="49530520.png"  transform="matrix(1 0 0 1 17.5166 30.0869)"/>
			</g>
		</mask>
		<g mask="url(#SVGID_11_)">
			<g>
				<image overflow="visible" width="3" height="6" xlink:href="D84DA8C1.png"  transform="matrix(1 0 0 1 17.875 30.125)">
				</image>
			</g>
		</g>
		<defs>
			<filter id="Adobe_OpacityMaskFilter_1_" filterUnits="userSpaceOnUse" x="20.875" y="30.125" width="6" height="7">
				<feColorMatrix  type="matrix" values="1 0 0 0 0  0 1 0 0 0  0 0 1 0 0  0 0 0 1 0"/>
			</filter>
		</defs>
		<mask maskUnits="userSpaceOnUse" x="20.875" y="30.125" width="6" height="7" id="SVGID_12_">
			<g filter="url(#Adobe_OpacityMaskFilter_1_)">
				
					<image overflow="visible" width="4.829" height="6.748" xlink:href="49530521.png"  transform="matrix(1 0 0 1 21.1548 30.168)"/>
			</g>
		</mask>
		<g mask="url(#SVGID_12_)">
			<g>
				<image overflow="visible" width="6" height="7" xlink:href="D84DA8C2.png"  transform="matrix(1 0 0 1 20.875 30.125)">
				</image>
			</g>
		</g>
		<defs>
			<filter id="Adobe_OpacityMaskFilter_2_" filterUnits="userSpaceOnUse" x="20.875" y="33.125" width="5" height="4">
				<feColorMatrix  type="matrix" values="1 0 0 0 0  0 1 0 0 0  0 0 1 0 0  0 0 0 1 0"/>
			</filter>
		</defs>
		<mask maskUnits="userSpaceOnUse" x="20.875" y="33.125" width="5" height="4" id="SVGID_13_">
			<g filter="url(#Adobe_OpacityMaskFilter_2_)">
				
					<image overflow="visible" width="4.729" height="2.53" xlink:href="49530522.png"  transform="matrix(1 0 0 1 21.7358 33.9902)"/>
			</g>
		</mask>
		<g mask="url(#SVGID_13_)">
			<g>
				<image overflow="visible" width="5" height="4" xlink:href="D84DA8C3.png"  transform="matrix(1 0 0 1 20.875 33.125)">
				</image>
			</g>
		</g>
		<defs>
			<filter id="Adobe_OpacityMaskFilter_3_" filterUnits="userSpaceOnUse" x="13.875" y="35.125" width="5" height="4">
				<feColorMatrix  type="matrix" values="1 0 0 0 0  0 1 0 0 0  0 0 1 0 0  0 0 0 1 0"/>
			</filter>
		</defs>
		<mask maskUnits="userSpaceOnUse" x="13.875" y="35.125" width="5" height="4" id="SVGID_14_">
			<g filter="url(#Adobe_OpacityMaskFilter_3_)">
				
					<image overflow="visible" width="4.186" height="3.496" xlink:href="49530523.png"  transform="matrix(1 0 0 1 14.7534 35.082)"/>
			</g>
		</mask>
		<g mask="url(#SVGID_14_)">
			<g>
				<image overflow="visible" width="5" height="4" xlink:href="D84DA8C4.png"  transform="matrix(1 0 0 1 13.875 35.125)">
				</image>
			</g>
		</g>
		<defs>
			<filter id="Adobe_OpacityMaskFilter_4_" filterUnits="userSpaceOnUse" x="15.875" y="40.125" width="4" height="4">
				<feColorMatrix  type="matrix" values="1 0 0 0 0  0 1 0 0 0  0 0 1 0 0  0 0 0 1 0"/>
			</filter>
		</defs>
		<mask maskUnits="userSpaceOnUse" x="15.875" y="40.125" width="4" height="4" id="SVGID_15_">
			<g filter="url(#Adobe_OpacityMaskFilter_4_)">
				
					<image overflow="visible" width="3.07" height="4.552" xlink:href="49530524.png"  transform="matrix(1 0 0 1 15.8516 39.3096)"/>
			</g>
		</mask>
		<g mask="url(#SVGID_15_)">
			<g>
				<image overflow="visible" width="4" height="4" xlink:href="D84DA8C0.png"  transform="matrix(1 0 0 1 15.875 40.125)">
				</image>
			</g>
		</g>
		<defs>
			<filter id="Adobe_OpacityMaskFilter_5_" filterUnits="userSpaceOnUse" x="18.875" y="30.125" width="3" height="7">
				<feColorMatrix  type="matrix" values="1 0 0 0 0  0 1 0 0 0  0 0 1 0 0  0 0 0 1 0"/>
			</filter>
		</defs>
		<mask maskUnits="userSpaceOnUse" x="18.875" y="30.125" width="3" height="7" id="SVGID_16_">
			<g filter="url(#Adobe_OpacityMaskFilter_5_)">
				
					<image overflow="visible" width="2.631" height="6.186" xlink:href="49530525.png"  transform="matrix(1 0 0 1 19.1826 30.4551)"/>
			</g>
		</mask>
		<g mask="url(#SVGID_16_)">
			<g>
				<image overflow="visible" width="3" height="7" xlink:href="D84DA8A1.png"  transform="matrix(1 0 0 1 18.875 30.125)">
				</image>
			</g>
		</g>
	</g>
	<g>
		<g>
			<path opacity="0.4382" fill="#E57842" d="M23.49,38.268c1.022,0.942,0.987,2.425,0.075,3.171
				c-0.893,0.739-2.255,0.405-3.086-0.707c-0.83-1.11-0.975-2.448-0.189-3.117C21.004,37.066,22.509,37.292,23.49,38.268z"/>
			<image overflow="visible" width="5" height="5" xlink:href="D84DA8A2.png"  transform="matrix(1 0 0 1 19.875 37.125)">
			</image>
			<path fill="#ED996C" d="M24.621,38.805c0.326,0.69,0.011,1.607-0.621,1.935c-0.679,0.393-1.399,0.02-1.65-0.783
				c-0.367-0.64-0.188-1.382,0.468-1.739C23.445,37.905,24.295,38.114,24.621,38.805z"/>
			<image overflow="visible" width="8" height="8" xlink:href="D84DA8A3.png"  transform="matrix(1 0 0 1 17.875 36.125)">
			</image>
			<image overflow="visible" width="3" height="4" xlink:href="D84DA8A4.png"  transform="matrix(1 0 0 1 21.875 37.125)">
			</image>
		</g>
	</g>
	<path fill="#914530" d="M32.56,31.241c0,0,2.26,3.366,0.753,4.508s-5.186-1.147-5.186-1.147s3.264,1.504,4.565,0.445
		C33.995,33.989,32.56,31.241,32.56,31.241z"/>
	<path fill="#914530" d="M40.877,29.935c0.986-0.51-0.292-3.165-0.292-3.165s2.108,2.927,0.765,3.912
		c-1.315,0.965-3.943-2.376-3.943-2.376S39.891,30.444,40.877,29.935z"/>
	
		<image overflow="visible" opacity="0.5" width="9" height="6" xlink:href="D84DA8A5.png"  transform="matrix(1 0 0 1 31.875 46.125)">
	</image>
	
		<image overflow="visible" opacity="0.5" width="4" height="4" xlink:href="D84DA8A6.png"  transform="matrix(1 0 0 1 35.875 46.125)">
	</image>
	<g>
		<g>
			<image overflow="visible" width="33" height="5" xlink:href="D84DA8A0.png"  transform="matrix(1 0 0 1 49.875 40.125)">
			</image>
			<polygon fill="#C1BFBE" points="57.128,45.389 75.74,45.389 76.185,44.485 56.684,44.485 			"/>
		</g>
		<g>
			
				<linearGradient id="SVGID_17_" gradientUnits="userSpaceOnUse" x1="191.0547" y1="40.8691" x2="191.0547" y2="45.513" gradientTransform="matrix(-1 0 0 1 266.2842 0)">
				<stop  offset="0" style="stop-color:#FFFFFF"/>
				<stop  offset="1" style="stop-color:#000000"/>
			</linearGradient>
			<path opacity="0.5" fill="url(#SVGID_17_)" d="M73.882,44.485c0,0,2.847-1.018,3.955-3.533h-2.723c0,0-1.2,3.16-2.492,3.533
				H73.882z"/>
			
				<linearGradient id="SVGID_18_" gradientUnits="userSpaceOnUse" x1="193.6631" y1="40.8691" x2="193.6631" y2="45.513" gradientTransform="matrix(-1 0 0 1 266.2842 0)">
				<stop  offset="0" style="stop-color:#FFFFFF"/>
				<stop  offset="1" style="stop-color:#000000"/>
			</linearGradient>
			<path opacity="0.5" fill="url(#SVGID_18_)" d="M71.96,44.485c0,0,1.398-1.018,1.942-3.533h-1.337c0,0-0.589,3.16-1.224,3.533
				H71.96z"/>
		</g>
		
			<linearGradient id="SVGID_19_" gradientUnits="userSpaceOnUse" x1="184.2842" y1="42.6523" x2="215.3888" y2="42.6523" gradientTransform="matrix(-1 0 0 1 266.2842 0)">
			<stop  offset="0" style="stop-color:#FFFFFF"/>
			<stop  offset="0.7143" style="stop-color:#000000"/>
			<stop  offset="1" style="stop-color:#FFFFFF"/>
		</linearGradient>
		<path opacity="0.5" fill="url(#SVGID_19_)" d="M82.283,40.82c0,1.492-2.387,2.818-6.087,3.665H56.672
			c-3.701-0.847-6.087-2.173-6.087-3.665H82.283z"/>
		
			<linearGradient id="SVGID_20_" gradientUnits="userSpaceOnUse" x1="190.0996" y1="44.9375" x2="209.6006" y2="44.9375" gradientTransform="matrix(-1 0 0 1 266.2842 0)">
			<stop  offset="0" style="stop-color:#FFFFFF"/>
			<stop  offset="0.7143" style="stop-color:#000000"/>
			<stop  offset="1" style="stop-color:#FFFFFF"/>
		</linearGradient>
		<polygon opacity="0.5" fill="url(#SVGID_20_)" points="57.128,45.389 75.74,45.389 76.185,44.485 56.684,44.485 		"/>
	</g>
	<image overflow="visible" width="9" height="5" xlink:href="D84DA8AB.png"  transform="matrix(1 0 0 1 64.875 22.125)">
	</image>
	<image overflow="visible" width="4" height="6" xlink:href="D84DA8AD.png"  transform="matrix(1 0 0 1 68.875 26.125)">
	</image>
	<image overflow="visible" width="5" height="7" xlink:href="D84DA8AE.png"  transform="matrix(1 0 0 1 64.875 28.125)">
	</image>
	<image overflow="visible" width="4" height="5" xlink:href="D84DA8B8.png"  transform="matrix(1 0 0 1 67.875 26.125)">
	</image>
	<image overflow="visible" width="5" height="3" xlink:href="D84DA8B9.png"  transform="matrix(1 0 0 1 67.875 24.125)">
	</image>
	<image overflow="visible" width="7" height="8" xlink:href="D84DA880.png"  transform="matrix(1 0 0 1 59.875 26.125)">
	</image>
	<image overflow="visible" width="9" height="13" xlink:href="D84DA881.png"  transform="matrix(1 0 0 1 57.875 22.125)">
	</image>
	
		<image overflow="visible" opacity="0.1" width="8" height="5" xlink:href="D84DA882.png"  transform="matrix(1 0 0 1 60.875 22.125)">
	</image>
	
		<image overflow="visible" opacity="0.1" width="4" height="4" xlink:href="D84DA883.png"  transform="matrix(1 0 0 1 65.875 24.125)">
	</image>
	
		<image overflow="visible" opacity="0.1" width="5" height="4" xlink:href="D84DA87C.png"  transform="matrix(1 0 0 1 63.875 25.125)">
	</image>
	
		<image overflow="visible" opacity="0.1" width="4" height="3" xlink:href="D84DA87D.png"  transform="matrix(1 0 0 1 66.875 22.125)">
	</image>
</g>
<g>
	<defs>
		<filter id="Adobe_OpacityMaskFilter_6_" filterUnits="userSpaceOnUse" x="97.875" y="15.125" width="2" height="3">
			<feColorMatrix  type="matrix" values="1 0 0 0 0  0 1 0 0 0  0 0 1 0 0  0 0 0 1 0"/>
		</filter>
	</defs>
	<mask maskUnits="userSpaceOnUse" x="97.875" y="15.125" width="2" height="3" id="SVGID_21_">
		<g filter="url(#Adobe_OpacityMaskFilter_6_)">
			
				<image overflow="visible" width="1.277" height="1.68" xlink:href="4953052E.png"  transform="matrix(1 0 0 1 98.4189 15.7075)"/>
		</g>
	</mask>
	<g display="none" mask="url(#SVGID_21_)">
		<g display="inline">
			<image overflow="visible" width="2" height="3" xlink:href="D84DA87E.png"  transform="matrix(1 0 0 1 97.875 15.125)">
			</image>
		</g>
	</g>
	<defs>
		<filter id="Adobe_OpacityMaskFilter_7_" filterUnits="userSpaceOnUse" x="97.875" y="16.125" width="2" height="2">
			<feColorMatrix  type="matrix" values="1 0 0 0 0  0 1 0 0 0  0 0 1 0 0  0 0 0 1 0"/>
		</filter>
	</defs>
	<mask maskUnits="userSpaceOnUse" x="97.875" y="16.125" width="2" height="2" id="SVGID_22_">
		<g filter="url(#Adobe_OpacityMaskFilter_7_)">
			
				<image overflow="visible" width="1.278" height="1.68" xlink:href="4953052F.png"  transform="matrix(1 0 0 1 97.9346 15.9063)"/>
		</g>
	</mask>
	<g display="none" mask="url(#SVGID_22_)">
		<g display="inline">
			<image overflow="visible" width="2" height="2" xlink:href="D84DA87F.png"  transform="matrix(1 0 0 1 97.875 16.125)">
			</image>
		</g>
	</g>
	<defs>
		<filter id="Adobe_OpacityMaskFilter_8_" filterUnits="userSpaceOnUse" x="96.875" y="16.125" width="2" height="2">
			<feColorMatrix  type="matrix" values="1 0 0 0 0  0 1 0 0 0  0 0 1 0 0  0 0 0 1 0"/>
		</filter>
	</defs>
	<mask maskUnits="userSpaceOnUse" x="96.875" y="16.125" width="2" height="2" id="SVGID_23_">
		<g filter="url(#Adobe_OpacityMaskFilter_8_)">
			
				<image overflow="visible" width="1.551" height="1.656" xlink:href="49530529.png"  transform="matrix(1 0 0 1 97.1035 16.2764)"/>
		</g>
	</mask>
	<g display="none" mask="url(#SVGID_23_)">
		<g display="inline">
			<image overflow="visible" width="2" height="2" xlink:href="43393ECC.png"  transform="matrix(1 0 0 1 96.875 16.125)">
			</image>
		</g>
	</g>
	<defs>
		<filter id="Adobe_OpacityMaskFilter_9_" filterUnits="userSpaceOnUse" x="95.875" y="17.125" width="3" height="2">
			<feColorMatrix  type="matrix" values="1 0 0 0 0  0 1 0 0 0  0 0 1 0 0  0 0 0 1 0"/>
		</filter>
	</defs>
	<mask maskUnits="userSpaceOnUse" x="95.875" y="17.125" width="3" height="2" id="SVGID_24_">
		<g filter="url(#Adobe_OpacityMaskFilter_9_)">
			
				<image overflow="visible" width="1.743" height="1.826" xlink:href="98FFC030.png"  transform="matrix(1 0 0 1 96.1406 17.0283)"/>
		</g>
	</mask>
	<g display="none" mask="url(#SVGID_24_)">
		<g display="inline">
			<image overflow="visible" width="3" height="2" xlink:href="43393ECB.png"  transform="matrix(1 0 0 1 95.875 17.125)">
			</image>
		</g>
	</g>
	<defs>
		<filter id="Adobe_OpacityMaskFilter_10_" filterUnits="userSpaceOnUse" x="96.875" y="16.125" width="2" height="3">
			<feColorMatrix  type="matrix" values="1 0 0 0 0  0 1 0 0 0  0 0 1 0 0  0 0 0 1 0"/>
		</filter>
	</defs>
	<mask maskUnits="userSpaceOnUse" x="96.875" y="16.125" width="2" height="3" id="SVGID_25_">
		<g filter="url(#Adobe_OpacityMaskFilter_10_)">
			
				<image overflow="visible" width="1.744" height="1.826" xlink:href="98FFC035.png"  transform="matrix(1 0 0 1 96.5513 16.6084)"/>
		</g>
	</mask>
	<g display="none" mask="url(#SVGID_25_)">
		<g display="inline">
			<image overflow="visible" width="2" height="3" xlink:href="43393ED8.png"  transform="matrix(1 0 0 1 96.875 16.125)">
			</image>
		</g>
	</g>
	<defs>
		<filter id="Adobe_OpacityMaskFilter_11_" filterUnits="userSpaceOnUse" x="95.875" y="17.125" width="2" height="3">
			<feColorMatrix  type="matrix" values="1 0 0 0 0  0 1 0 0 0  0 0 1 0 0  0 0 0 1 0"/>
		</filter>
	</defs>
	<mask maskUnits="userSpaceOnUse" x="95.875" y="17.125" width="2" height="3" id="SVGID_26_">
		<g filter="url(#Adobe_OpacityMaskFilter_11_)">
			
				<image overflow="visible" width="1.825" height="1.76" xlink:href="98FFC036.png"  transform="matrix(1 0 0 1 95.6646 17.5479)"/>
		</g>
	</mask>
	<g display="none" mask="url(#SVGID_26_)">
		<g display="inline">
			<image overflow="visible" width="2" height="3" xlink:href="43393ED9.png"  transform="matrix(1 0 0 1 95.875 17.125)">
			</image>
		</g>
	</g>
	<defs>
		<filter id="Adobe_OpacityMaskFilter_12_" filterUnits="userSpaceOnUse" x="94.875" y="18.125" width="3" height="2">
			<feColorMatrix  type="matrix" values="1 0 0 0 0  0 1 0 0 0  0 0 1 0 0  0 0 0 1 0"/>
		</filter>
	</defs>
	<mask maskUnits="userSpaceOnUse" x="94.875" y="18.125" width="3" height="2" id="SVGID_27_">
		<g filter="url(#Adobe_OpacityMaskFilter_12_)">
			
				<image overflow="visible" width="1.758" height="1.448" xlink:href="98FFC037.png"  transform="matrix(1 0 0 1 95.7681 18.5132)"/>
		</g>
	</mask>
	<g display="none" mask="url(#SVGID_27_)">
		<g display="inline">
			<image overflow="visible" width="3" height="2" xlink:href="43393EDA.png"  transform="matrix(1 0 0 1 94.875 18.125)">
			</image>
		</g>
	</g>
	<defs>
		<filter id="Adobe_OpacityMaskFilter_13_" filterUnits="userSpaceOnUse" x="95.875" y="17.125" width="2" height="3">
			<feColorMatrix  type="matrix" values="1 0 0 0 0  0 1 0 0 0  0 0 1 0 0  0 0 0 1 0"/>
		</filter>
	</defs>
	<mask maskUnits="userSpaceOnUse" x="95.875" y="17.125" width="2" height="3" id="SVGID_28_">
		<g filter="url(#Adobe_OpacityMaskFilter_13_)">
			
				<image overflow="visible" width="1.759" height="1.448" xlink:href="98FFC03C.png"  transform="matrix(1 0 0 1 95.9092 17.9229)"/>
		</g>
	</mask>
	<g display="none" mask="url(#SVGID_28_)">
		<g display="inline">
			<image overflow="visible" width="2" height="3" xlink:href="43393EDF.png"  transform="matrix(1 0 0 1 95.875 17.125)">
			</image>
		</g>
	</g>
</g>
<g display="none">
</g>
</svg>
